<svg viewBox="0 0 169.12 43.22" xmlns="http://www.w3.org/2000/svg"><path d="m0 15.7v-15.7h15.7c10.01 0 18.15 8.14 18.15 18.15v15.7h-15.7c-10.01 0-18.15-8.14-18.15-18.15zm29.18 2.45c0-7.43-6.05-13.48-13.48-13.48h-11.03v11.03c0 7.43 6.05 13.48 13.48 13.48h11.03z" fill="#6fbd16"/><g fill="#fff"><path d="m53.46 5.49c-.01-.01-.01-.03-.02-.04v-.01s-.01-.01-.01-.01c-.06-.14-.13-.27-.21-.39-.01-.01-.01-.01-.02-.02-.08-.12-.17-.23-.27-.32-.01-.01-.02-.02-.03-.03-.1-.09-.2-.18-.32-.25-.01-.01-.03-.02-.05-.03-.12-.07-.24-.14-.36-.19-.01 0-.01-.01-.02-.01-.03-.01-.06-.02-.09-.03s-.06-.02-.1-.03-.09-.02-.13-.03c-.03-.01-.06-.02-.1-.02-.04-.01-.09-.02-.13-.02-.03 0-.07-.01-.1-.01-.04 0-.08-.01-.12-.01s-.07 0-.11 0-.07 0-.11 0-.08 0-.12.01c-.03 0-.07.01-.1.01-.04.01-.09.01-.13.02-.03.01-.06.01-.09.02-.04.01-.09.02-.13.03-.03.01-.06.02-.1.03-.03.01-.06.02-.09.03-.01 0-.01.01-.02.01-.13.05-.25.11-.36.19 0 0-.02.01-.03.02-.11.07-.22.16-.32.25-.01.01-.02.02-.03.03-.1.1-.19.21-.27.32-.01.01-.01.02-.02.02-.08.12-.15.25-.21.38 0 0 0 .01-.01.01v.01c-.01.01-.01.03-.02.04l-8.42 21.16c-.48 1.2.1 2.57 1.31 3.05.28.11.58.17.87.17.93 0 1.81-.56 2.18-1.47l1.34-3.38h9.39c.14 0 .28-.02.41-.04l1.37 3.44c.37.92 1.25 1.47 2.18 1.47.29 0 .58-.05.87-.17 1.2-.48 1.79-1.85 1.31-3.05zm-2.17 7.2 3.32 8.3h-6.62z"/><path d="m76.22 12.5c-.77 0-1.52.42-1.93 1.05-1.22-.7-2.52-1.05-3.89-1.05-4.5 0-8.15 3.89-8.15 8.66 0 4.8 3.66 8.7 8.15 8.7 1.2 0 2.38-.29 3.51-.85v.66c0 1.01-.35 2.03-.97 2.78-.69.79-1.62 1.24-2.58 1.24h-.2c-1.01-.07-1.99-.69-2.61-1.66-.43-.67-1.15-1.07-1.91-1.07-.47 0-.9.13-1.27.39-.66.43-1.07 1.17-1.07 1.95 0 .43.12.83.36 1.23 1.41 2.19 3.72 3.61 6.2 3.8h.51c2.34 0 4.64-1.1 6.15-2.94 1.29-1.59 2.01-3.62 2.01-5.72v-14.86c-.01-1.27-1.04-2.31-2.31-2.31zm-2.31 8.67c0 2.24-1.57 4.06-3.51 4.06-1.97 0-3.51-1.78-3.51-4.06 0-2.22 1.57-4.02 3.51-4.02s3.51 1.8 3.51 4.02z"/><path d="m99.28 12.5c-4.78 0-8.66 3.9-8.66 8.7 0 4.78 3.89 8.66 8.66 8.66 4.8 0 8.7-3.89 8.7-8.66 0-4.8-3.9-8.7-8.7-8.7zm4.05 8.7c0 2.22-1.82 4.02-4.06 4.02-2.22 0-4.02-1.8-4.02-4.02 0-2.24 1.8-4.06 4.02-4.06 2.24.01 4.06 1.82 4.06 4.06z"/><path d="m111.82 4.03c-1.27 0-2.3 1.03-2.3 2.3v21.22c0 1.27 1.03 2.3 2.3 2.3 1.29 0 2.34-1.03 2.34-2.3v-21.21c0-1.27-1.05-2.31-2.34-2.31z"/><path d="m124.36 12.5c-4.78 0-8.66 3.9-8.66 8.7 0 4.78 3.89 8.66 8.66 8.66 4.8 0 8.7-3.89 8.7-8.66 0-4.8-3.9-8.7-8.7-8.7zm4.06 8.7c0 2.22-1.82 4.02-4.06 4.02-2.22 0-4.02-1.8-4.02-4.02 0-2.24 1.8-4.06 4.02-4.06 2.24.01 4.06 1.82 4.06 4.06z"/><path d="m148.57 12.5c-.77 0-1.52.42-1.93 1.05-1.22-.7-2.52-1.05-3.89-1.05-4.5 0-8.15 3.89-8.15 8.66 0 4.8 3.66 8.7 8.15 8.7 1.2 0 2.38-.29 3.51-.85v.66c0 1.01-.35 2.03-.97 2.78-.69.79-1.63 1.24-2.58 1.24h-.21c-1.01-.07-1.99-.69-2.61-1.66-.43-.67-1.15-1.07-1.91-1.07-.47 0-.9.13-1.27.39-.66.43-1.07 1.17-1.07 1.95 0 .43.12.83.36 1.23 1.41 2.19 3.72 3.61 6.2 3.8h.51c2.34 0 4.64-1.1 6.15-2.94 1.29-1.59 2.01-3.62 2.01-5.72v-14.86c0-1.27-1.03-2.31-2.3-2.31zm-2.3 8.67c0 2.24-1.57 4.06-3.51 4.06-1.97 0-3.51-1.78-3.51-4.06 0-2.22 1.57-4.02 3.51-4.02 1.93 0 3.51 1.8 3.51 4.02z"/><path d="m167.82 12.74c-.31-.15-.66-.24-1-.24-.89 0-1.71.53-2.1 1.35l-3.93 8.31-3.97-8.31c-.39-.82-1.22-1.35-2.1-1.35-.33 0-.69.08-.99.24-.81.38-1.31 1.19-1.31 2.1 0 .35.08.67.24.99l5.52 11.65-3.41 7.58c-.14.28-.2.58-.2.96 0 .92.53 1.77 1.31 2.1.27.14.6.2 1 .2.92 0 1.73-.52 2.1-1.35l3.62-8.01.25-.4 6.04-12.74c.16-.33.24-.64.24-1-.01-.89-.51-1.7-1.31-2.08z"/><path d="m89.42 12.82c-.77-.21-1.69-.3-2.48-.31-.02 0-.04 0-.06 0s-.04 0-.06 0c-.34 0-.66.01-.91.05v.01c-.67.07-1.3.21-1.86.42-.39-.31-.88-.48-1.42-.48-1.27 0-2.3 1.05-2.3 2.34v12.72c0 1.27 1.03 2.3 2.3 2.3 1.29 0 2.34-1.03 2.34-2.3v-9.53s.03-.19.11-.32c.31-.47 1.15-.57 1.8-.57.04 0 .09 0 .13-.01.46.02.91.08 1.19.16.2.05.4.08.6.08 1.01 0 1.95-.68 2.22-1.7.35-1.25-.37-2.53-1.6-2.86z"/></g><path d="m36.95 33.69-10.49-10.49c.51-1.67.1-3.56-1.21-4.88-1.9-1.9-5-1.9-6.9 0s-1.9 5 0 6.9c1.32 1.32 3.21 1.72 4.88 1.21l10.49 10.49c-.51 1.67-.1 3.56 1.21 4.88 1.9 1.9 5 1.9 6.9 0s1.9-5 0-6.9c-1.32-1.32-3.21-1.72-4.88-1.21zm-16.37-13.14c.67-.67 1.77-.67 2.44 0s.67 1.77 0 2.44-1.77.67-2.44 0-.67-1.77 0-2.44zm19.02 19.02c-.67.67-1.77.67-2.44 0s-.67-1.77 0-2.44 1.77-.67 2.44 0 .67 1.77 0 2.44z" fill="#f87329"/></svg>