<svg enable-background="new 0 0 204.77 52.33" viewBox="0 0 204.77 52.33" xmlns="http://www.w3.org/2000/svg"><path d="m0 19.01v-19.01h19.01c12.12 0 21.97 9.86 21.97 21.97v19.01h-19.01c-12.11 0-21.97-9.85-21.97-21.97zm35.33 2.96c0-9-7.32-16.32-16.32-16.32h-13.36v13.36c0 9 7.32 16.32 16.32 16.32h13.36z" fill="#6cc72b"/><g fill="#4b4846"><path d="m64.73 6.65c-.01-.02-.01-.03-.02-.05 0-.01 0-.01-.01-.02 0-.01-.01-.01-.01-.02-.07-.17-.16-.32-.26-.47-.01-.01-.01-.02-.02-.03-.1-.14-.21-.27-.33-.39-.01-.01-.03-.02-.04-.04-.12-.11-.25-.22-.38-.31-.02-.01-.04-.02-.06-.03-.14-.09-.29-.16-.44-.23-.01 0-.01-.01-.02-.01-.04-.01-.07-.02-.11-.04-.03 0-.07-.01-.11-.02-.05-.02-.1-.03-.15-.04-.04-.01-.08-.02-.12-.03-.05-.01-.1-.02-.15-.03-.04-.01-.08-.01-.12-.02-.05 0-.1-.01-.15-.01s-.09 0-.14 0c-.04 0-.09 0-.13 0-.05 0-.1.01-.15.01-.04 0-.08.01-.12.02-.05.01-.11.02-.16.03-.04.01-.08.02-.11.03-.05.01-.1.03-.16.04-.03.01-.07.02-.11.04-.04.01-.07.02-.11.04-.01 0-.01.01-.02.01-.15.06-.3.14-.44.23-.02.01-.04.02-.06.03-.14.09-.26.19-.38.31-.01.01-.03.03-.04.04-.12.12-.23.25-.33.39-.01.01-.01.02-.02.03-.1.14-.18.3-.26.47 0 .01-.01.01-.01.01 0 .01 0 .01-.01.02-.01.02-.02.03-.02.05l-10.2 25.62c-.58 1.45.13 3.11 1.58 3.69.34.14.7.2 1.05.2 1.13 0 2.2-.68 2.64-1.78l1.63-4.11h11.37c.17 0 .34-.02.5-.05l1.66 4.16c.44 1.11 1.51 1.78 2.64 1.78.35 0 .71-.07 1.05-.2 1.45-.58 2.16-2.24 1.58-3.69zm-2.63 8.71 4.02 10.05h-8.02z"/><path d="m92.28 15.14c-.94 0-1.84.5-2.33 1.27-1.47-.85-3.05-1.27-4.71-1.27-5.44 0-9.87 4.71-9.87 10.49 0 5.81 4.43 10.53 9.87 10.53 1.46 0 2.88-.35 4.25-1.03v.8c0 1.23-.43 2.45-1.17 3.36-.83.96-1.97 1.5-3.12 1.5h-.25c-1.22-.08-2.41-.83-3.16-2-.53-.81-1.39-1.3-2.31-1.3-.57 0-1.09.16-1.54.48-.8.52-1.3 1.42-1.3 2.36 0 .52.14 1 .43 1.49 1.71 2.65 4.51 4.37 7.5 4.6h.62c2.83 0 5.61-1.33 7.44-3.56 1.57-1.92 2.43-4.38 2.43-6.93v-18c.01-1.54-1.24-2.79-2.78-2.79zm-2.79 10.49c0 2.71-1.91 4.91-4.25 4.91-2.38 0-4.25-2.16-4.25-4.91 0-2.68 1.91-4.87 4.25-4.87 2.35 0 4.25 2.18 4.25 4.87z"/><path d="m120.2 15.14c-5.78 0-10.49 4.72-10.49 10.53 0 5.78 4.71 10.49 10.49 10.49 5.81 0 10.53-4.71 10.53-10.49.01-5.81-4.72-10.53-10.53-10.53zm4.92 10.53c0 2.68-2.2 4.87-4.91 4.87-2.68 0-4.87-2.18-4.87-4.87 0-2.71 2.18-4.91 4.87-4.91 2.7 0 4.91 2.2 4.91 4.91z"/><path d="m135.39 4.89c-1.54 0-2.79 1.25-2.79 2.79v25.69c0 1.54 1.25 2.79 2.79 2.79 1.56 0 2.83-1.25 2.83-2.79v-25.69c.01-1.54-1.27-2.79-2.83-2.79z"/><path d="m150.58 15.14c-5.78 0-10.49 4.72-10.49 10.53 0 5.78 4.71 10.49 10.49 10.49 5.81 0 10.53-4.71 10.53-10.49 0-5.81-4.73-10.53-10.53-10.53zm4.91 10.53c0 2.68-2.2 4.87-4.91 4.87-2.68 0-4.87-2.18-4.87-4.87 0-2.71 2.18-4.91 4.87-4.91 2.7 0 4.91 2.2 4.91 4.91z"/><path d="m179.89 15.14c-.94 0-1.84.5-2.33 1.27-1.47-.85-3.06-1.27-4.71-1.27-5.44 0-9.87 4.71-9.87 10.49 0 5.81 4.43 10.53 9.87 10.53 1.46 0 2.88-.35 4.25-1.03v.8c0 1.23-.43 2.45-1.17 3.36-.83.96-1.97 1.5-3.12 1.5h-.25c-1.22-.08-2.41-.83-3.16-2-.53-.81-1.39-1.3-2.31-1.3-.57 0-1.09.16-1.54.48-.8.52-1.3 1.42-1.3 2.36 0 .52.14 1 .43 1.49 1.71 2.65 4.51 4.37 7.5 4.6h.62c2.83 0 5.61-1.33 7.44-3.56 1.57-1.92 2.43-4.38 2.43-6.93v-18c.01-1.54-1.25-2.79-2.78-2.79zm-2.79 10.49c0 2.71-1.91 4.91-4.25 4.91-2.38 0-4.25-2.16-4.25-4.91 0-2.68 1.91-4.87 4.25-4.87s4.25 2.18 4.25 4.87z"/><path d="m203.19 15.43c-.37-.19-.8-.29-1.21-.29-1.08 0-2.07.64-2.55 1.63l-4.76 10.06-4.8-10.06c-.47-.99-1.47-1.63-2.55-1.63-.4 0-.83.1-1.2.29-.98.47-1.59 1.44-1.59 2.55 0 .43.09.81.29 1.2l6.68 14.11-4.13 9.17c-.17.34-.25.7-.25 1.16 0 1.12.64 2.14 1.58 2.54.33.17.72.25 1.21.25 1.11 0 2.09-.63 2.55-1.64l4.38-9.69.31-.48 7.32-15.42c.2-.4.29-.78.29-1.21.01-1.1-.6-2.08-1.57-2.54z"/><path d="m108.27 15.52c-.93-.25-2.05-.36-3-.38-.02 0-.05 0-.07 0-.03 0-.05 0-.08 0-.41 0-.8.02-1.1.05v.01c-.82.08-1.58.25-2.26.51-.47-.38-1.06-.58-1.72-.58-1.54 0-2.79 1.27-2.79 2.83v15.4c0 1.54 1.25 2.79 2.79 2.79 1.56 0 2.83-1.25 2.83-2.79v-11.53s.04-.22.14-.39c.38-.57 1.39-.69 2.18-.69.05 0 .1-.01.16-.01.55.02 1.1.1 1.44.19.24.07.49.1.73.1 1.23 0 2.36-.82 2.69-2.06.42-1.5-.45-3.05-1.94-3.45z"/></g><path d="m44.74 40.79-12.7-12.7c.62-2.02.13-4.31-1.47-5.91-2.3-2.3-6.05-2.3-8.35 0s-2.3 6.05 0 8.35c1.6 1.6 3.88 2.08 5.9 1.47l12.7 12.7c-.62 2.02-.13 4.31 1.47 5.9 2.3 2.3 6.05 2.3 8.35 0s2.3-6.05 0-8.35c-1.59-1.59-3.88-2.08-5.9-1.46zm-19.82-15.91c.81-.81 2.14-.81 2.95 0s.81 2.14 0 2.95-2.14.81-2.95 0-.81-2.14 0-2.95zm23.03 23.03c-.81.81-2.14.81-2.95 0s-.81-2.14 0-2.95 2.14-.81 2.95 0 .81 2.13 0 2.95z" fill="#f98a3c"/></svg>